# File created by Blade
# Date/Time:  Thu Jan 22 18:06:37 2015
#---------------------------------------------------------
:version 1.10
:name HOM
:units
  mass 1.0
  length 1.000000
  angle deg
:documentation
     Acclaim Skeleton File
:root
   axis xyz
   order TX TY TZ RX RY RZ
   position 0.000000 0.000000 0.000000
   orientation 0 0 0
:bonedata
   begin
      id 1
      name RightUpLeg_dum
      direction -1.000000 0.000000 0.000000
      length 4.478084
      axis 0.0 0.0 0.0 xyz
   end
   begin
      id 2
      name LeftUpLeg_dum
      direction 1.000000 0.000000 0.000000
      length 4.478084
      axis 0.0 0.0 0.0 xyz
   end
   begin
      id 3
      name Spine_dum
      direction 0.000000 1.000000 0.000000
      length 6.068208
      axis 0.0 0.0 0.0 xyz
   end
   begin
      id 4
      name RightUpLeg
      direction 0.000000 -1.000000 0.000000
      length 16.405774
      axis 0.0 0.0 0.0 xyz
      dof rx ry rz
   end
   begin
      id 5
      name RightLeg
      direction 0.000000 -1.000000 0.000000
      length 14.644143
      axis 0.0 0.0 0.0 xyz
      dof rx ry rz
   end
   begin
      id 6
      name RightFoot
      direction 0.000000 -0.258819 0.965926
      length 5.806150
      axis 15.0 0.0 0.0 xyz
      dof rx ry rz
   end
   begin
      id 7
      name RightToeBase
      direction 0.000000 0.000000 1.000000
      length 2.952750
      axis 0.0 0.0 0.0 xyz
      dof rx ry rz
   end
   begin
      id 8
      name LeftUpLeg
      direction 0.000000 -1.000000 0.000000
      length 16.405774
      axis 0.0 0.0 0.0 xyz
      dof rx ry rz
   end
   begin
      id 9
      name LeftLeg
      direction 0.000000 -1.000000 0.000000
      length 14.644143
      axis 0.0 0.0 0.0 xyz
      dof rx ry rz
   end
   begin
      id 10
      name LeftFoot
      direction 0.000000 -0.258819 0.965926
      length 5.806150
      axis 15.0 0.0 0.0 xyz
      dof rx ry rz
   end
   begin
      id 11
      name LeftToeBase
      direction 0.000000 0.000000 1.000000
      length 2.952750
      axis 0.0 0.0 0.0 xyz
      dof rx ry rz
   end
   begin
      id 12
      name Spine
      direction 0.000000 1.000000 0.000000
      length 0.000000
      axis 0.0 0.0 0.0 xyz
      dof rx ry rz
   end
   begin
      id 13
      name Spine_dum1
      direction 0.000000 1.000000 0.000000
      length 10.013923
      axis 0.0 0.0 0.0 xyz
   end
   begin
      id 14
      name Spine_dum2
      direction 0.000000 1.000000 0.000000
      length 10.013923
      axis 0.0 0.0 0.0 xyz
   end
   begin
      id 15
      name Spine_dum3
      direction 0.000000 1.000000 0.000000
      length 15.777476
      axis 0.0 0.0 0.0 xyz
   end
   begin
      id 16
      name RightShoulder
      direction -1.000000 0.000000 0.000000
      length 7.190220
      axis 0.0 0.0 90.0 xyz
      dof rx ry rz
   end
   begin
      id 17
      name RightArm
      direction -1.000000 0.000000 0.000000
      length 10.177469
      axis 0.0 0.0 90.0 xyz
      dof rx ry rz
   end
   begin
      id 18
      name RightForeArm
      direction -1.000000 0.000000 0.000000
      length 8.392114
      axis 0.0 0.0 90.0 xyz
      dof ry rz rx
   end
   begin
      id 19
      name RightHand
      direction -1.000000 0.000000 0.000000
      length 0.000000
      axis 0.0 0.0 90.0 xyz
      dof rx ry rz
   end
   begin
      id 20
      name RightHand_dum1
      direction -1.000000 0.000000 0.000000
      length 3.937000
      axis 0.0 0.0 90.0 xyz
   end
   begin
      id 21
      name RightHand_dum2
      direction 0.000000 0.000000 0.000000
      length 0.000000
      axis 0.0 0.0 90.0 xyz
   end
   begin
      id 22
      name RightHandThumb1
      direction 0.000000 0.000000 1.000000
      length 3.937000
      axis 0.0 0.0 90.0 xyz
      dof rx rz ry
   end
   begin
      id 23
      name LeftShoulder
      direction 1.000000 0.000000 0.000000
      length 7.190220
      axis 0.0 0.0 -90.0 xyz
      dof rx ry rz
   end
   begin
      id 24
      name LeftArm
      direction 1.000000 0.000000 0.000000
      length 10.177469
      axis 0.0 0.0 -90.0 xyz
      dof rx ry rz
   end
   begin
      id 25
      name LeftForeArm
      direction 1.000000 0.000000 0.000000
      length 8.392114
      axis 0.0 0.0 -90.0 xyz
      dof ry rz rx
   end
   begin
      id 26
      name LeftHand
      direction 1.000000 0.000000 0.000000
      length 0.000000
      axis 0.0 0.0 -90.0 xyz
      dof rx ry rz
   end
   begin
      id 27
      name LeftHand_dum1
      direction 1.000000 0.000000 0.000000
      length 3.937000
      axis 0.0 0.0 -90.0 xyz
   end
   begin
      id 28
      name LeftHand_dum2
      direction 0.000000 0.000000 0.000000
      length 0.000000
      axis 0.0 0.0 -90.0 xyz
   end
   begin
      id 29
      name LeftHandThumb1
      direction 0.000000 0.000000 1.000000
      length 3.937000
      axis 0.0 0.0 -90.0 xyz
      dof rx rz ry
   end
   begin
      id 30
      name Head
      direction 0.000000 1.000000 0.000000
      length 4.527550
      axis 0.0 0.0 0.0 xyz
      dof rx ry rz
   end
:hierarchy
   begin
      root RightUpLeg_dum LeftUpLeg_dum Spine_dum
      RightUpLeg_dum RightUpLeg
      LeftUpLeg_dum LeftUpLeg
      Spine_dum Spine
      RightUpLeg RightLeg
      RightLeg RightFoot
      RightFoot RightToeBase
      LeftUpLeg LeftLeg
      LeftLeg LeftFoot
      LeftFoot LeftToeBase
      Spine Spine_dum1 Spine_dum2 Spine_dum3
      Spine_dum1 RightShoulder
      Spine_dum2 LeftShoulder
      Spine_dum3 Head
      RightShoulder RightArm
      RightArm RightForeArm
      RightForeArm RightHand
      RightHand RightHand_dum1 RightHand_dum2
      RightHand_dum2 RightHandThumb1
      LeftShoulder LeftArm
      LeftArm LeftForeArm
      LeftForeArm LeftHand
      LeftHand LeftHand_dum1 LeftHand_dum2
      LeftHand_dum2 LeftHandThumb1
   end

# File created by Blade
# Date/Time:  Thu Jan 22 18:06:27 2015
# Frame Rate: 120.000 fps
#------------------------------------------------------
:FULLY-SPECIFIED
:DEGREES
256
root -0.107311 32.556526 -1.773531 13.160869 34.111861 12.208687
RightUpLeg -26.024285 25.698750 -0.818890
RightLeg 94.035067 -0.000000 -0.000000
RightFoot 6.379724 18.451067 2.810569
RightToeBase -9.655819 -0.000000 0.000000
LeftUpLeg -0.663395 -21.704528 -13.570418
LeftLeg -1.045775 -0.000000 0.000000
LeftFoot -4.451543 -9.356087 -1.729294
LeftToeBase 6.944357 -0.000000 -0.000000
Spine -7.478428 -18.733560 -8.146920
RightShoulder -22.115488 -20.115109 -21.526340
RightArm 12.307471 29.687510 48.051022
RightForeArm -9.611181 0.000000 17.189645
RightHand 7.122855 -0.000000 10.293065
RightHandThumb1 -24.326973 -0.000000 -32.862282
LeftShoulder -20.127557 -0.516984 26.008279
LeftArm 29.914738 -27.229700 -55.352922
LeftForeArm 3.147502 -0.000000 36.134461
LeftHand -0.368507 -0.000000 33.091175
LeftHandThumb1 -26.253704 0.000000 33.147579
Head 20.532216 -0.080121 -5.331957
257
root -0.087515 32.550760 -1.773213 13.214746 34.074969 12.261575
RightUpLeg -25.875628 25.621949 -0.825260
RightLeg 94.055528 -0.000000 -0.000000
RightFoot 6.485055 18.567541 2.805745
RightToeBase -9.677965 -0.000000 0.000000
LeftUpLeg -0.680338 -21.751024 -13.643448
LeftLeg -1.016220 -0.000000 0.000000
LeftFoot -4.476078 -9.321265 -1.731937
LeftToeBase 6.967728 -0.000000 -0.000000
Spine -7.553049 -18.661095 -8.100628
RightShoulder -22.112741 -20.138847 -21.563408
RightArm 12.223743 29.733230 48.016572
RightForeArm -9.499148 -0.000000 17.193716
RightHand 7.105898 -0.000000 10.216180
RightHandThumb1 -24.326973 -0.000000 -32.862282
LeftShoulder -20.159443 -0.604553 26.007022
LeftArm 29.844888 -27.050630 -55.238758
LeftForeArm 3.066592 -0.000000 36.007768
LeftHand -0.355456 0.000000 32.893135
LeftHandThumb1 -26.253704 0.000000 33.147579
Head 20.452633 -0.029499 -5.443025
258
root -0.069263 32.545410 -1.774513 13.262480 34.000078 12.296653
RightUpLeg -25.761344 25.583489 -0.839986
RightLeg 94.060793 -0.000000 -0.000000
RightFoot 6.669840 18.642366 2.991785
RightToeBase -9.645320 -0.000000 0.000000
LeftUpLeg -0.719679 -21.754023 -13.704942
LeftLeg -0.981488 -0.000000 0.000000
LeftFoot -4.515399 -9.280156 -1.700252
LeftToeBase 6.972604 -0.000000 -0.000000
Spine -7.630655 -18.556720 -8.068860
RightShoulder -22.139202 -20.203615 -21.542953
RightArm 12.241177 29.739120 47.977963
RightForeArm -9.432833 -0.000000 17.135257
RightHand 7.107600 0.000000 10.118484
RightHandThumb1 -24.326973 -0.000000 -32.862282
LeftShoulder -20.196618 -0.604869 26.024293
LeftArm 29.854516 -26.915169 -55.202458
LeftForeArm 2.942557 -0.000000 35.890827
LeftHand -0.310772 0.000000 32.644798
LeftHandThumb1 -26.253704 0.000000 33.147579
Head 20.395829 0.011023 -5.501804
259
root -0.051707 32.539948 -1.775374 13.299354 33.900057 12.334786
RightUpLeg -25.644520 25.534020 -0.855527
RightLeg 94.061965 -0.000000 -0.000000
RightFoot 6.734594 18.707360 2.935526
RightToeBase -9.669736 -0.000000 0.000000
LeftUpLeg -0.742902 -21.749341 -13.772508
LeftLeg -0.955259 -0.000000 0.000000
LeftFoot -4.546093 -9.241071 -1.686298
LeftToeBase 7.001644 -0.000000 -0.000000
Spine -7.686994 -18.434109 -8.051745
RightShoulder -22.130518 -20.192432 -21.566583
RightArm 12.168490 29.830472 47.968954
RightForeArm -9.494939 -0.000000 17.149514
RightHand 7.092544 -0.000000 9.988622
RightHandThumb1 -24.326973 -0.000000 -32.862282
LeftShoulder -20.226870 -0.576152 25.995637
LeftArm 29.890120 -26.805411 -55.119223
LeftForeArm 2.807168 -0.000000 35.784775
LeftHand -0.273467 0.000000 32.481023
LeftHandThumb1 -26.253704 0.000000 33.147579
Head 20.314658 0.061190 -5.562720
